# xmcd
#
# Track frame offsets: 
#        150
#        13850
#        27080
#        38452
#        52575
#        65698
#        83541
#        97241
#        109851
#        121523
#
# Disc length: 1789 seconds
#
# Revision: 0
# Processed by: cddbd v1.5.2PL0 Copyright (c) Steve Scherf et al.
# Submitted via: ExactAudioCopy v1.3
#
DISCID=6d06fb0a
DTITLE=Porter Wagoner - Porter
DYEAR=1977
DGENRE=Country
TTITLE0=Don't This Road Look Rought And Rocky
TTITLE1=Hand Me Down My Walking Cane
TTITLE2=Childhood Playground
TTITLE3=The Funky Grass Band
TTITLE4=Walking In That California Sunshine
TTITLE5=I Haven't Learned A Thing
TTITLE6=Arizona Whiz
TTITLE7=Ruby Jones
TTITLE8=Crumbs From Another Man's Table
TTITLE9=Old Log Cabin For Sale
EXTD=
EXTT0=
EXTT1=
EXTT2=
EXTT3=
EXTT4=
EXTT5=
EXTT6=
EXTT7=
EXTT8=
EXTT9=
PLAYORDER=
